HIERARCHY
ROOT hip
{
	OFFSET 0.000000 0.000000 0.000000
	CHANNELS 6 Xposition Yposition Zposition Xrotation Zrotation Yrotation 
	JOINT abdomen
	{
		OFFSET 0.000000 3.422050 0.000000
		CHANNELS 3 Xrotation Zrotation Yrotation 
		JOINT chest
		{
			OFFSET 0.000000 8.486693 -0.684411
			CHANNELS 3 Xrotation Zrotation Yrotation 
			JOINT neck
			{
				OFFSET 0.000000 10.266162 -0.273764
				CHANNELS 3 Xrotation Zrotation Yrotation 
				JOINT head
				{
					OFFSET 0.000000 3.148285 0.000000
					CHANNELS 3 Xrotation Zrotation Yrotation 
					End Site
					{
						OFFSET 0.000000 3.148289 0.000000
					}
				}
			}
			JOINT lCollar
			{
				OFFSET 3.422053 6.707223 -0.821293
				CHANNELS 3 Yrotation Zrotation Xrotation 
				JOINT lShldr
				{
					OFFSET 3.285171 0.000000 0.000000
					CHANNELS 3 Zrotation Yrotation Xrotation 
					JOINT lForeArm
					{
						OFFSET 10.129278 0.000000 0.000000
						CHANNELS 3 Yrotation Zrotation Xrotation 
						JOINT lHand
						{
							OFFSET 8.486692 0.000000 0.000000
							CHANNELS 3 Zrotation Yrotation Xrotation 
							End Site
							{
								OFFSET 4.106464 0.000000 0.000000
							}
						}
					}
				}
			}
			JOINT rCollar
			{
				OFFSET -3.558935 6.707223 -0.821293
				CHANNELS 3 Yrotation Zrotation Xrotation 
				JOINT rShldr
				{
					OFFSET -3.148289 0.000000 0.000000
					CHANNELS 3 Zrotation Yrotation Xrotation 
					JOINT rForeArm
					{
						OFFSET -10.266159 0.000000 0.000000
						CHANNELS 3 Yrotation Zrotation Xrotation 
						JOINT rHand
						{
							OFFSET -8.349810 0.000000 0.000000
							CHANNELS 3 Zrotation Yrotation Xrotation 
							End Site
							{
								OFFSET -4.106464 0.000000 0.000000
							}
						}
					}
				}
			}
		}
	}
	JOINT lThigh
	{
		OFFSET 5.338403 -1.642589 1.368821
		CHANNELS 3 Xrotation Zrotation Yrotation 
		JOINT lShin
		{
			OFFSET -2.053232 -20.121670 0.000000
			CHANNELS 3 Xrotation Zrotation Yrotation 
			JOINT lFoot
			{
				OFFSET 0.000000 -19.300380 -1.231939
				CHANNELS 3 Xrotation Yrotation Zrotation 
				End Site
				{
					OFFSET 0.000000 -2.463878 4.653993
				}
			}
		}
	}
	JOINT rThigh
	{
		OFFSET -5.338403 -1.642589 1.368821
		CHANNELS 3 Xrotation Zrotation Yrotation 
		JOINT rShin
		{
			OFFSET 2.053232 -20.121670 0.000000
			CHANNELS 3 Xrotation Zrotation Yrotation 
			JOINT rFoot
			{
				OFFSET 0.000000 -19.300380 -1.231939
				CHANNELS 3 Xrotation Yrotation Zrotation 
				End Site
				{
					OFFSET 0.000000 -2.463878 4.653993
				}
			}
		}
	}
}
MOTION
Frames: 13
Frame Time: 0.049989
-0.309380 41.404850 1.853164 -31.283485 0.000000 0.000000 16.065073 0.131256 -0.096040 35.403362 -0.607000 -0.686639 -35.197144 0.000000 0.000000 -26.391932 0.000000 0.000000 -0.001347 -8.002656 -0.194655 -57.741531 -4.001737 -0.451969 -26.001497 0.000000 0.000000 -7.000325 0.000000 0.000000 -0.002182 7.999156 -0.194408 57.737442 3.998658 -0.453797 25.997908 0.000000 0.000000 6.996825 0.000000 0.000000 17.626652 11.176949 12.492953 32.764843 0.317808 -0.570869 -17.597921 6.624269 -15.686709 17.480526 -10.224401 -12.465094 33.102379 -0.335603 0.572854 -18.021509 -6.811956 14.851131 
-0.309380 41.404850 1.835008 -30.563747 0.000000 0.000000 15.762284 0.116512 -0.098174 35.004669 -0.607064 -0.686607 -34.389694 0.000000 0.000000 -25.782843 0.000000 0.000000 -0.001347 -8.002656 -0.194655 -57.741531 -4.001737 -0.451969 -26.001497 0.000000 0.000000 -7.000325 0.000000 0.000000 -0.002182 7.999156 -0.194408 57.737442 3.998658 -0.453797 25.997908 0.000000 0.000000 6.996825 0.000000 0.000000 16.759787 11.190118 12.434608 32.953384 0.343762 -0.572954 -17.597921 6.624269 -15.686709 16.614691 -10.234211 -12.412148 33.289524 -0.365620 0.574033 -18.021509 -6.811956 14.851131 
-0.309380 41.404850 1.816852 -29.842859 0.000000 0.000000 15.459410 0.101754 -0.100230 34.605770 -0.607128 -0.686575 -33.580601 0.000000 0.000000 -25.173052 0.000000 0.000000 -0.001347 -8.002656 -0.194655 -57.741539 -4.001738 -0.451969 -26.001497 0.000000 0.000000 -7.000325 0.000000 0.000000 -0.002182 7.999156 -0.194408 57.737442 3.998658 -0.453797 25.997908 0.000000 0.000000 6.996825 0.000000 0.000000 15.890871 11.202446 12.375924 33.141953 0.369726 -0.574955 -17.597921 6.624269 -15.686709 15.746822 -10.243251 -12.358932 33.476707 -0.395643 0.575115 -18.021509 -6.811956 14.851131 
-0.309380 41.404850 1.798697 -29.120861 0.000000 0.000000 15.156451 0.086980 -0.102209 34.206684 -0.607191 -0.686542 -32.769939 0.000000 0.000000 -24.562609 0.000000 0.000000 -0.001347 -8.002656 -0.194655 -57.741531 -4.001737 -0.451969 -26.001497 0.000000 0.000000 -7.000325 0.000000 0.000000 -0.002182 7.999156 -0.194408 57.737442 3.998658 -0.453797 25.997908 0.000000 0.000000 6.996825 0.000000 0.000000 15.020011 11.213927 12.316932 33.330536 0.395698 -0.576871 -17.597921 6.624269 -15.686709 14.877027 -10.251517 -12.305468 33.663902 -0.425674 0.576098 -18.021509 -6.811956 14.851131 
-0.309380 41.404850 1.780541 -28.397818 0.000000 0.000000 14.853416 0.072193 -0.104110 33.807411 -0.607255 -0.686509 -31.957787 0.000000 0.000000 -23.951527 0.000000 0.000000 -0.001347 -8.002656 -0.194655 -57.741539 -4.001738 -0.451969 -26.001497 0.000000 0.000000 -7.000325 0.000000 0.000000 -0.002182 7.999156 -0.194408 57.737442 3.998658 -0.453797 25.997908 0.000000 0.000000 6.996825 0.000000 0.000000 14.147291 11.224546 12.257640 33.519146 0.421680 -0.578701 -17.597921 6.624269 -15.686709 14.005380 -10.258995 -12.251764 33.851124 -0.455710 0.576984 -18.021509 -6.811956 14.851131 
-0.309380 41.404850 1.762385 -27.673784 0.000000 0.000000 14.550308 0.057392 -0.105933 33.407986 -0.607318 -0.686475 -31.144228 0.000000 0.000000 -23.339848 0.000000 0.000000 -0.001347 -8.002656 -0.194655 -57.741531 -4.001737 -0.451969 -26.001497 0.000000 0.000000 -7.000325 0.000000 0.000000 -0.002182 7.999156 -0.194408 57.737442 3.998658 -0.453797 25.997908 0.000000 0.000000 6.996825 0.000000 0.000000 13.272812 11.234298 12.198070 33.707764 0.447671 -0.580446 -17.597921 6.624269 -15.686709 13.131997 -10.265683 -12.197849 34.038357 -0.485752 0.577772 -18.021509 -6.811956 14.851131 
-0.309380 41.404850 1.744230 -26.948814 0.000000 0.000000 14.247129 0.042578 -0.107678 33.008389 -0.607381 -0.686441 -30.329346 0.000000 0.000000 -22.727613 0.000000 0.000000 -0.001347 -8.002656 -0.194655 -57.741539 -4.001738 -0.451969 -26.001497 0.000000 0.000000 -7.000325 0.000000 0.000000 -0.002182 7.999156 -0.194408 57.737442 3.998658 -0.453797 25.997908 0.000000 0.000000 6.996825 0.000000 0.000000 12.396670 11.243169 12.138242 33.896408 0.473669 -0.582106 -17.597921 6.624269 -15.686709 12.256966 -10.271568 -12.143731 34.225613 -0.515800 0.578461 -18.021509 -6.811956 14.851131 
-0.309380 41.404850 1.726074 -26.222958 0.000000 0.000000 13.943887 0.027752 -0.109346 32.608635 -0.607443 -0.686406 -29.513186 0.000000 0.000000 -22.114845 0.000000 0.000000 -0.001347 -8.002656 -0.194655 -57.741531 -4.001737 -0.451969 -26.001497 0.000000 0.000000 -7.000325 0.000000 0.000000 -0.002182 7.999156 -0.194408 57.737442 3.998658 -0.453797 25.997908 0.000000 0.000000 6.996825 0.000000 0.000000 11.518969 11.251158 12.078178 34.085064 0.499674 -0.583680 -17.597921 6.624269 -15.686709 11.380385 -10.276649 -12.089434 34.412880 -0.545851 0.579052 -18.021509 -6.811956 14.851131 
-0.309380 41.404850 1.707919 -25.496286 0.000000 0.000000 13.640577 0.012914 -0.110935 32.208752 -0.607506 -0.686371 -28.695875 0.000000 0.000000 -21.501585 0.000000 0.000000 -0.001347 -8.002656 -0.194655 -57.741531 -4.001737 -0.451969 -26.001497 0.000000 0.000000 -7.000325 0.000000 0.000000 -0.002182 7.999156 -0.194408 57.737442 3.998658 -0.453797 25.997908 0.000000 0.000000 6.996825 0.000000 0.000000 10.639809 11.258256 12.017897 34.273731 0.525687 -0.585168 -17.597921 6.624269 -15.686709 10.502357 -10.280919 -12.034973 34.600166 -0.575907 0.579545 -18.021509 -6.811956 14.851131 
-0.309380 41.404850 1.689763 -24.768845 0.000000 0.000000 13.337218 -0.001935 -0.112445 31.808735 -0.607568 -0.686336 -27.877459 0.000000 0.000000 -20.887861 0.000000 0.000000 -0.001347 -8.002656 -0.194655 -57.741531 -4.001737 -0.451969 -26.001497 0.000000 0.000000 -7.000325 0.000000 0.000000 -0.002182 7.999156 -0.194408 57.737442 3.998658 -0.453797 25.997908 0.000000 0.000000 6.996825 0.000000 0.000000 9.759289 11.264452 11.957420 34.462418 0.551707 -0.586571 -17.597921 6.624269 -15.686709 9.622986 -10.284374 -11.980372 34.787472 -0.605967 0.579940 -18.021509 -6.811956 14.851131 
-0.309380 41.404850 1.671607 -24.040695 0.000000 0.000000 13.033801 -0.016794 -0.113878 31.408590 -0.607630 -0.686300 -27.058033 0.000000 0.000000 -20.273720 0.000000 0.000000 -0.001347 -8.002656 -0.194655 -57.741531 -4.001737 -0.451969 -26.001497 0.000000 0.000000 -7.000325 0.000000 0.000000 -0.002182 7.999156 -0.194408 57.737442 3.998658 -0.453797 25.997908 0.000000 0.000000 6.996825 0.000000 0.000000 8.877508 11.269744 11.896766 34.651119 0.577733 -0.587888 -17.597921 6.624269 -15.686709 8.742368 -10.287002 -11.925641 34.974781 -0.636030 0.580237 -18.021509 -6.811956 14.851131 
-0.309380 41.404850 1.653452 -23.311897 0.000000 0.000000 12.730335 -0.031663 -0.115232 31.008327 -0.607691 -0.686264 -26.237680 0.000000 0.000000 -19.659180 0.000000 0.000000 -0.001347 -8.002656 -0.194655 -57.741531 -4.001737 -0.451969 -26.001497 0.000000 0.000000 -7.000325 0.000000 0.000000 -0.002182 7.999156 -0.194408 57.737442 3.998658 -0.453797 25.997908 0.000000 0.000000 6.996825 0.000000 0.000000 7.994576 11.274123 11.835953 34.839828 0.603764 -0.589120 -17.597921 6.624269 -15.686709 7.860609 -10.288808 -11.870810 35.162106 -0.666095 0.580435 -18.021509 -6.811956 14.851131 
-0.309380 41.404850 1.635296 -22.582500 0.000000 0.000000 12.426826 -0.046541 -0.116507 30.607973 -0.607753 -0.686227 -25.416479 0.000000 0.000000 -19.044292 0.000000 0.000000 -0.001347 -8.002656 -0.194655 -57.741531 -4.001737 -0.451969 -26.001497 0.000000 0.000000 -7.000325 0.000000 0.000000 -0.002182 7.999156 -0.194408 57.737442 3.998658 -0.453797 25.997908 0.000000 0.000000 6.996825 0.000000 0.000000 7.110597 11.277589 11.775011 35.028553 0.629802 -0.590266 -17.597921 6.624269 -15.686709 6.977814 -10.289783 -11.815891 35.349442 -0.696163 0.580535 -18.021509 -6.811956 14.851131 
